<?xml version="1.0" encoding="utf-8"?>
<!-- Generator: Adobe Illustrator 19.0.0, SVG Export Plug-In . SVG Version: 6.00 Build 0)  -->
<svg version="1.1" id="Layer_1" xmlns="http://www.w3.org/2000/svg" xmlns:xlink="http://www.w3.org/1999/xlink" x="0px" y="0px"
	 viewBox="-291 263.3 259 70" style="enable-background:new -291 263.3 259 70;" xml:space="preserve">
<style type="text/css">
	.st0{fill:#FFFFFF;}
	.st1{display:none;}
	.st2{display:none;fill:#FFFFFF;}
	.st3{fill:#1D1D1B;}
	.st4{display:inline;fill:#E6007E;}
</style>
<g>
	<rect x="-282.1" y="272.5" class="st0" width="233.2" height="43.9"/>
	<polygon class="st0" points="-44.5,280.3 -44.5,320.8 -274.3,320.8 -274.3,324.2 -41.1,324.2 -41.1,280.3 	"/>
</g>
<g id="Layer_1_1_" class="st1">
	
		<image style="display:inline;overflow:visible;enable-background:new    ;" width="1096" height="1096" xlink:href="C341461332838E4A.jpeg"  transform="matrix(0.2396 0 0 0.2393 -298 390.28)">
	</image>
</g>
<path class="st2" d="M-35.7,390.1h-262.6v262.3h262.6V390.1L-35.7,390.1z"/>
<g>
	<path class="st3" d="M-262.1,286.8l-5.8,15.3h4.5l0.8-2.2h6l0.8,2.2h4.5l-5.8-15.3H-262.1z M-261.6,296.5l2-5.8l1.9,5.8H-261.6z"/>
	<rect x="-250.3" y="286.8" class="st3" width="3.5" height="15.3"/>
	<rect x="-244.2" y="286.8" class="st3" width="3.5" height="15.3"/>
	<polygon class="st3" points="-232.5,290.3 -228.2,290.3 -228.2,302.1 -228.2,302.2 -224.3,302.2 -224.3,290.3 -220,290.3 
		-220,286.9 -232.5,286.9 	"/>
	<path class="st3" d="M-210.7,290.8c-1.8,0-3.1,0.8-3.8,1.6v-5.6h-3.5v15.3h3.5v-7.2c0.4-0.5,1.1-1.1,2.1-1.1c1.1,0,1.8,0.4,1.8,1.8
		v6.5v0.1h3.6v-7.9C-207,292.2-208.2,290.8-210.7,290.8z"/>
	<path class="st3" d="M-202.8,286c-1.1,0-2,0.9-2,2c0,1.1,0.9,2.1,2,2c1.1,0,2-0.9,2-2C-200.8,286.9-201.7,286-202.8,286z"/>
	<polygon class="st3" points="-204.5,302.1 -204.5,302.2 -201,302.2 -201,291.1 -204.5,291.1 	"/>
	<path class="st3" d="M-191.1,290.9c-1.8,0-3.1,0.8-3.8,1.6v-1.4h-3.5v11.1h3.5V295c0.5-0.5,1.1-1.1,2.2-1.1c1.1,0,1.8,0.4,1.8,1.8
		v6.4v0.2h3.5v-7.9C-187.4,292.4-188.6,290.9-191.1,290.9z"/>
	<path class="st3" d="M-177.4,292.4c-0.9-1.1-2.1-1.6-3.3-1.6c-2.8,0-4.9,1.9-4.9,5.6s2.2,5.6,4.9,5.6c1.3,0,2.4-0.5,3.3-1.6v0.9
		c0,2-1.6,2.5-2.8,2.5c-1.3,0-2.6-0.4-3.4-1.3l-1.5,2.5c1.4,1.2,3,1.7,4.9,1.7c2.7,0,6.3-1,6.3-5.5v-10.1h-3.5V292.4z M-177.4,297.9
		c-0.4,0.6-1.3,0.9-2.1,1c-1.4,0-2.4-0.9-2.4-2.5c0-1.6,1-2.5,2.4-2.5c0.7,0,1.7,0.4,2.1,1V297.9z"/>
	<path class="st3" d="M-168.5,294.2c0-0.5,0.6-0.8,1.4-0.8c1.4,0,2.6,0.6,3.3,1.2l1.4-2.3c-1.2-0.9-2.7-1.5-4.6-1.5
		c-3.1,0-4.8,1.7-4.8,3.7c0,4.5,6.5,3.1,6.5,4.5c0,0.5-0.4,0.8-1.5,0.8c-1.3,0-3.1-0.8-3.9-1.5l-1.5,2.4c1.2,1.1,3.2,1.7,5.1,1.8
		c3.2,0,5.1-1.6,5.1-3.7C-162,294.2-168.5,295.5-168.5,294.2z"/>
	<polygon class="st3" points="-142.6,292.5 -149,292.5 -149,286.8 -153,286.8 -153,302.2 -149,302.2 -149,296 -142.6,296 
		-142.6,302.1 -138.6,302.1 -138.6,286.8 -142.6,286.8 	"/>
	<path class="st3" d="M-131.2,290.9c-1.7,0-3.6,0.5-5,1.7l1.3,2.2c0.8-0.8,2-1.2,3.1-1.2c1.5,0,2.3,0.6,2.3,1.6v1.3
		c-0.6-0.8-1.9-1.3-3.4-1.3c-1.7,0-3.8,0.9-3.8,3.6c0,2.6,2.1,3.7,3.8,3.7c1.4,0,2.7-0.6,3.4-1.4v1.1h3.5v-6.9
		C-126,291.9-128.5,290.9-131.2,290.9z M-129.5,299.3c-0.3,0.5-1.1,0.8-2,0.8c-1,0-1.8-0.4-1.8-1.3c0-0.9,0.9-1.3,1.8-1.3
		c0.8,0,1.6,0.3,2,0.8V299.3z"/>
	<path class="st3" d="M-121.6,286c-1.1,0-2,0.9-2,2c0,1.2,0.9,2.1,2,2c1.1,0,2-0.9,2-2C-119.6,286.9-120.5,286-121.6,286z"/>
	<rect x="-123.3" y="291.1" class="st3" width="3.5" height="11.1"/>
	<path class="st3" d="M-110.2,290.8c-1.4,0-2.8,0.8-3.5,1.7v-1.4h-3.5v11.1h3.5v-7.1c0.5-0.6,1.7-1,2.6-1c0.4,0,0.7,0.1,0.9,0.1
		V290.8z"/>
	<path class="st3" d="M-108,298.1c-1.2,0-2.2,1-2.2,2.2c0,1.2,1,2.1,2.2,2.2c1.2,0,2.2-1,2.2-2.2
		C-105.8,299.1-106.8,298.1-108,298.1z"/>
	<path class="st3" d="M-44.5,275.9v-7.8h-242v52.7h7.8v7.8h242v-52.7H-44.5z M-282.1,316.4v-43.9h233.2v43.9H-282.1z M-41.1,324.2
		h-233.2v-3.4h229.8v-40.5h3.4V324.2z"/>
</g>
<g id="Layer_4" class="st1">
	<path class="st4" d="M-387.1,306v-12.6h-13V306h-8.1v-31.3h8.1v11.7h13v-11.7h8.1V306C-379,306-387.1,306-387.1,306z"/>
	<path class="st4" d="M-26.6,306v-12.6h-13V306h-8.1v-31.3h8.1v11.7h13v-11.7h8.1V306C-18.5,306-26.6,306-26.6,306z"/>
	<path class="st4" d="M2.6,306v-12.6h-13V306h-8.1v-31.3h8.1v11.7h13v-11.7h8.1V306C10.7,306,2.6,306,2.6,306z"/>
	<path class="st4" d="M31.7,306v-12.6h-13V306h-8.1v-31.3h8.1v11.7h13v-11.7h8.1V306C39.8,306,31.7,306,31.7,306z"/>
	<path class="st4" d="M60.9,306v-12.6h-13V306h-8.1v-31.3h8.1v11.7h13v-11.7H69V306C69,306,60.9,306,60.9,306z"/>
	<path class="st4" d="M-350.5,327.1h12.6v-13h-12.6V306h31.3v8.1h-11.7v13h11.7v8.1h-31.3V327.1z"/>
	<path class="st4" d="M-68,585v12.6h13V585h8.1v31.3H-55v-11.7h-13v11.7h-8.1V585H-68z"/>
	<path class="st4" d="M-97.2,585v12.6h13V585h8.1v31.3h-8.1v-11.7h-13v11.7h-8.1V585H-97.2z"/>
	<path class="st4" d="M-126.4,585v12.6h13V585h8.1v31.3h-8.1v-11.7h-13v11.7h-8.1V585H-126.4z"/>
	<path class="st4" d="M-334.2,253.6h-12.6v13h12.6v8.1h-31.3v-8.1h11.7v-13h-11.7v-8.1h31.3V253.6z"/>
</g>
</svg>
