<?xml version="1.0" encoding="utf-8"?>
<!-- Generator: Adobe Illustrator 19.0.0, SVG Export Plug-In . SVG Version: 6.00 Build 0)  -->
<svg version="1.1" id="Layer_1" xmlns="http://www.w3.org/2000/svg" xmlns:xlink="http://www.w3.org/1999/xlink" x="0px" y="0px"
	 viewBox="-317 195 205.3 205.3" style="enable-background:new -317 195 205.3 205.3;" xml:space="preserve">
<style type="text/css">
	.st0{fill:#FFFFFF;}
	.st1{display:none;}
	.st2{display:none;fill:#FFFFFF;}
	.st3{display:inline;fill:#E6007E;}
	.st4{fill:#1D1D1B;}
</style>
<g>
	<rect x="-306.9" y="205.5" class="st0" width="170.3" height="170.1"/>
	<polygon class="st0" points="-128.9,219.7 -128.9,383.5 -292.7,383.5 -292.7,389.8 -122.5,389.8 -122.5,219.7 	"/>
</g>
<g id="Layer_1_1_" class="st1">
	
		<image style="display:inline;overflow:visible;enable-background:new    ;" width="1096" height="1096" xlink:href="169F30B8BA9A274B.jpeg"  transform="matrix(0.2396 0 0 0.2393 -355.6667 156.6467)">
	</image>
</g>
<path class="st2" d="M-93.4,156.5h-262.5v262.3h262.6V156.5H-93.4z"/>
<g id="Layer_4" class="st1">
	<path class="st3" d="M-323.8,378.7v-12.6h-13v12.6h-8.1v-31.3h8.1V359h13v-11.7h8.1v31.3L-323.8,378.7L-323.8,378.7z"/>
	<path class="st3" d="M-287.1,399.8h12.6v-13h-12.6v-8.1h31.3v8.1h-11.7v13h11.7v8.1h-31.3V399.8z"/>
	<path class="st3" d="M-125.7,351.3v12.6h13v-12.6h8.1v31.3h-8.1V371h-13v11.7h-8.1v-31.3h8.1V351.3z"/>
	<path class="st3" d="M-154.9,351.3v12.6h13v-12.6h8.1v31.3h-8.1V371h-13v11.7h-8.1v-31.3h8.1V351.3z"/>
	<path class="st3" d="M-184.1,351.3v12.6h13v-12.6h8.1v31.3h-8V371h-13v11.7h-8.1v-31.3h8V351.3z"/>
	<path class="st3" d="M-270.8,234.2h-12.6v13h12.6v8.1h-31.4v-8.1h11.7v-13h-11.7v-8.1h31.3v8.1H-270.8z"/>
	<path class="st3" d="M-270.8,205h-12.6v13h12.6v8.1h-31.4V218h11.7v-13h-11.7v-8h31.3v8H-270.8z"/>
	<path class="st3" d="M-270.8,175.8h-12.6v13h12.6v8.2h-31.4v-8.1h11.7v-13h-11.7v-8.1h31.3v8H-270.8z"/>
</g>
<g>
	<path class="st4" d="M-128.9,211.9v-14.1h-185.8v185.7h14.2v14.1h185.8V211.9H-128.9z M-306.9,375.6V205.5h170.3v170.1H-306.9z
		 M-122.5,389.8h-170.2v-6.3h163.8V219.7h6.4V389.8z"/>
	<path class="st4" d="M-280.9,286.7h8.7l1.1,3.2h6.5l-8.4-22.2h-7.2l-8.3,22.2h6.5L-280.9,286.7z M-276.6,273.3l2.9,8.3h-5.7
		L-276.6,273.3z"/>
	<rect x="-263.1" y="267.7" class="st4" width="5.1" height="22.2"/>
	<rect x="-254.3" y="267.7" class="st4" width="5.1" height="22.2"/>
	<polygon class="st4" points="-281.2,322.4 -275.5,322.4 -275.5,305.2 -269.3,305.2 -269.3,300.2 -287.4,300.2 -287.4,305.2 
		-281.2,305.2 	"/>
	<path class="st4" d="M-261.6,308.4v-8.1h-5.1v22.2h5.1v-10.4c0.6-0.8,1.6-1.6,3.1-1.6c1.7,0,2.7,0.6,2.7,2.6v9.3h5.1V311
		c0-2.9-1.6-5-5.3-5C-258.7,306-260.6,307.3-261.6,308.4z"/>
	<rect x="-246.9" y="306.3" class="st4" width="5.1" height="16.1"/>
	<path class="st4" d="M-244.4,305c1.6,0,2.9-1.4,2.9-3c0-1.6-1.3-2.9-2.9-2.9c-1.6,0-2.9,1.3-2.9,2.9
		C-247.3,303.6-246,305-244.4,305z"/>
	<path class="st4" d="M-232.9,312c0.6-0.8,1.6-1.6,3.1-1.6c1.6,0,2.6,0.7,2.6,2.7v9.3h5.1V311c0-3-1.6-5.1-5.3-5.1
		c-2.7,0-4.6,1.3-5.6,2.4v-2h-5v16.1h5.1V312z"/>
	<path class="st4" d="M-207.6,308.3c-1.3-1.6-3-2.3-4.8-2.3c-4,0-7.1,2.8-7.1,8.1c0,5.4,3.2,8.1,7.1,8.1c1.9,0,3.5-0.7,4.8-2.3v1.2
		c0,3-2.4,3.7-4.1,3.7c-1.9,0-3.7-0.6-4.9-1.9l-2.2,3.7c2.1,1.7,4.4,2.4,7.1,2.4c4,0,9.2-1.4,9.2-8v-14.6h-5.1V308.3z M-207.6,316.2
		c-0.6,0.9-2,1.4-3.1,1.5c-2,0-3.5-1.2-3.5-3.6c0-2.4,1.5-3.6,3.5-3.6c1.1,0,2.5,0.5,3.1,1.4V316.2z"/>
	<path class="st4" d="M-194.5,310.9c0-0.7,0.8-1.2,2-1.2c1.9,0,3.7,0.9,4.7,1.8l2-3.4c-1.7-1.2-4-2.1-6.7-2.1
		c-4.5,0-6.9,2.5-6.9,5.3c0,6.5,9.3,4.4,9.3,6.5c0,0.7-0.7,1.2-2.2,1.2c-1.9,0-4.5-1-5.7-2.1l-2.1,3.5c1.7,1.5,4.7,2.4,7.6,2.4
		c4.6,0,7.3-2.2,7.3-5.3C-185.2,310.9-194.5,312.8-194.5,310.9z"/>
	<polygon class="st4" points="-271.2,341.1 -280.4,341.1 -280.4,332.8 -286.1,332.8 -286.1,355 -280.4,355 -280.4,346.1 
		-271.2,346.1 -271.2,355 -265.5,355 -265.5,332.8 -271.2,332.8 	"/>
	<path class="st4" d="M-254.6,338.6c-2.5,0-5.2,0.7-7.3,2.5l1.8,3.2c1.3-1.1,3-1.7,4.6-1.7c2.1,0,3.3,0.9,3.3,2.3v1.9
		c-1-1.2-2.9-1.9-5-1.9c-2.4,0-5.5,1.3-5.5,5.2c0,3.6,3,5.3,5.5,5.3c2.1,0,4-0.8,5-2v1.6h5.1v-10
		C-247.1,340-250.7,338.6-254.6,338.6z M-252.2,350.9c-0.5,0.7-1.7,1.1-2.9,1.3c-1.4,0-2.6-0.6-2.6-1.9c0-1.3,1.2-1.9,2.6-1.9
		c1.2,0,2.4,0.4,2.9,1.1V350.9z"/>
	<path class="st4" d="M-240.8,331.6c-1.6,0-2.9,1.3-2.9,2.9c0,1.7,1.3,3,2.9,3c1.6,0,2.9-1.4,2.9-3
		C-237.9,332.9-239.2,331.6-240.8,331.6z"/>
	<rect x="-243.3" y="338.9" class="st4" width="5.1" height="16.1"/>
	<path class="st4" d="M-229.4,340.9v-2h-5.1V355h5v-10.2c0.7-0.9,2.5-1.5,3.8-1.5c0.6,0,1,0,1.3,0.1v-4.9
		C-226.3,338.5-228.3,339.6-229.4,340.9z"/>
	<path class="st4" d="M-221.2,349.2c-1.7,0-3.1,1.4-3.1,3.1c0,1.7,1.4,3.1,3.1,3.1s3.1-1.4,3.1-3.1
		C-218.1,350.6-219.5,349.2-221.2,349.2z"/>
</g>
</svg>
